<svg xmlns="http://www.w3.org/2000/svg" viewBox="0 0 120 120" width="480" height="480">
<defs>
<symbol id="helm" viewBox="0 0 120 120">
<path d="M29,40 Q29,12 60,12 Q91,12 91,40 L91,44 Q60,34 29,44 Z" fill="#F3F0D4"></path>
<path d="M30,33 Q60,23 90,33 L90,35.5 Q60,25.5 30,35.5 Z" fill="#FF4B4B"></path>
<path d="M30,35.5 Q60,25.5 90,35.5 L90,40 Q60,30 30,40 Z" fill="#FFFFFF"></path>
<path d="M30,40 Q60,30 90,40 L90,42.5 Q60,32.5 30,42.5 Z" fill="#FF4B4B"></path>
<path d="M25,43 Q60,31 95,43 L95,47 Q60,35 25,47 Z" fill="#DEDABA"></path>
</symbol>
<symbol id="g6-base" viewBox="0 0 120 120">
<circle cx="20" cy="62" r="7" fill="#B7BCC8"></circle>
<circle cx="20" cy="62" r="3.5" fill="#756E85"></circle>
<circle cx="100" cy="62" r="7" fill="#B7BCC8"></circle>
<circle cx="100" cy="62" r="3.5" fill="#756E85"></circle>
<path d="M34,84 L26,107" fill="none" stroke="#2B2340" stroke-width="11" stroke-linecap="round"></path>
<path d="M86,84 L94,107" fill="none" stroke="#2B2340" stroke-width="11" stroke-linecap="round"></path>
<rect x="28" y="78" width="64" height="32" rx="15" fill="#2B2340"></rect>
<rect x="28" y="88.5" width="64" height="1.8" fill="#FF4B4B"></rect>
<rect x="28" y="92" width="64" height="5" fill="#C9CFDA"></rect>
<path d="M30,36 L90,36 L93,60 L85,80 L60,87 L35,80 L27,60 Z" fill="#B7BCC8"></path>
<circle cx="31" cy="43" r="7" fill="#F2F3F7"></circle>
<circle cx="89" cy="43" r="7" fill="#F2F3F7"></circle>
<path d="M40,48 L80,48 L84,70 L73,80 L60,81 L47,80 L36,70 Z" fill="#756E85"></path>
<path d="M44,61 L76,61 L80,78 L60,82.5 L40,78 Z" fill="#847D96"></path>
<ellipse cx="49" cy="55" rx="6" ry="4.5" fill="#5E5870"></ellipse>
<ellipse cx="71" cy="55" rx="6" ry="4.5" fill="#5E5870"></ellipse>
<path d="M56,58 Q55,63 53,66" fill="none" stroke="#5E5870" stroke-width="2.5" stroke-linecap="round"></path>
<path d="M64,58 Q65,63 67,66" fill="none" stroke="#5E5870" stroke-width="2.5" stroke-linecap="round"></path>
<path d="M57,66 Q48,65.5 47,70.5 Q47,74.5 53,73.5 Q58,72.5 58,68 Z" fill="#2B2340"></path>
<path d="M63,66 Q72,65.5 73,70.5 Q73,74.5 67,73.5 Q62,72.5 62,68 Z" fill="#2B2340"></path>
<path d="M38,48 Q60,42 82,48" fill="none" stroke="#5E5870" stroke-width="5" stroke-linecap="round"></path>
<path d="M31,64 L41,89 L60,92 L79,89 L89,64 L83,68 L77,84 L60,86 L43,84 L37,68 Z" fill="#F2F3F7"></path>
<use href="#helm"></use>
<circle cx="60" cy="26" r="10" fill="#FFFFFF" stroke="#E8B33C" stroke-width="1.4"></circle>
<path d="M55.5,21.5 Q60,26 64.5,30.5" fill="none" stroke="#E8B33C" stroke-width="2.8" stroke-linecap="round"></path>
<path d="M64.5,21.5 Q60,26 55.5,30.5" fill="none" stroke="#E8B33C" stroke-width="2.8" stroke-linecap="round"></path>
</symbol>
<symbol id="gau6-n" viewBox="0 0 120 120">
<path d="M38,42.5 Q45,43.5 51,47" fill="none" stroke="#F2F3F7" stroke-width="5" stroke-linecap="round"></path>
<path d="M82,42.5 Q75,43.5 69,47" fill="none" stroke="#F2F3F7" stroke-width="5" stroke-linecap="round"></path>
<circle cx="49" cy="55.5" r="2.2" fill="#2B2340"></circle>
<circle cx="71" cy="55.5" r="2.2" fill="#2B2340"></circle>
<circle cx="49.8" cy="54.7" r="0.8" fill="#FFFFFF"></circle>
<circle cx="71.8" cy="54.7" r="0.8" fill="#FFFFFF"></circle>
<path d="M50,77.5 Q60,75 70,77.5" fill="none" stroke="#2B2340" stroke-width="2.8" stroke-linecap="round"></path>
</symbol>
</defs>
<use href="#g6-base"></use>
<use href="#gau6-n"></use>
</svg>
