<svg xmlns="http://www.w3.org/2000/svg" viewBox="0 0 120 120" width="480" height="480">
<defs>
<symbol id="helm" viewBox="0 0 120 120">
<path d="M29,40 Q29,12 60,12 Q91,12 91,40 L91,44 Q60,34 29,44 Z" fill="#F3F0D4"></path>
<path d="M30,33 Q60,23 90,33 L90,35.5 Q60,25.5 30,35.5 Z" fill="#FF4B4B"></path>
<path d="M30,35.5 Q60,25.5 90,35.5 L90,40 Q60,30 30,40 Z" fill="#FFFFFF"></path>
<path d="M30,40 Q60,30 90,40 L90,42.5 Q60,32.5 30,42.5 Z" fill="#FF4B4B"></path>
<path d="M25,43 Q60,31 95,43 L95,47 Q60,35 25,47 Z" fill="#DEDABA"></path>
</symbol>
<symbol id="jacke" viewBox="0 0 120 120">
<rect x="37" y="80" width="46" height="30" rx="14" fill="#2B2340"></rect>
<rect x="37" y="89.5" width="46" height="1.8" fill="#FF4B4B"></rect>
<rect x="37" y="93" width="46" height="5" fill="#C9CFDA"></rect>
</symbol>
<symbol id="chi-tail-h" viewBox="0 0 120 120">
<path d="M78,101 Q109,103 111,85 Q112,71 107,63 Q103,55 112,46" fill="none" stroke="#C99A6B" stroke-width="7.5" stroke-linecap="round"></path>
</symbol>
<symbol id="chi-base-h" viewBox="0 0 120 120">
<circle cx="23" cy="56" r="9.5" fill="#C99A6B"></circle>
<circle cx="23" cy="56" r="4.8" fill="#F0CBA3"></circle>
<circle cx="97" cy="56" r="9.5" fill="#C99A6B"></circle>
<circle cx="97" cy="56" r="4.8" fill="#F0CBA3"></circle>
<use href="#jacke"></use>
<circle cx="60" cy="58" r="32" fill="#C99A6B"></circle>
<ellipse cx="60" cy="63" rx="22" ry="19" fill="#F7E3C8"></ellipse>
<circle cx="56" cy="65" r="1.6" fill="#2B2340"></circle>
<circle cx="64" cy="65" r="1.6" fill="#2B2340"></circle>
<circle cx="38" cy="70" r="4" fill="#E8B88C"></circle>
<circle cx="82" cy="70" r="4" fill="#E8B88C"></circle>
<use href="#helm"></use>
<circle cx="60" cy="26" r="10" fill="#FFFFFF" stroke="#FF4B4B" stroke-width="1.4"></circle>
<path d="M55,26 h10 M60,21 v10" stroke="#FF4B4B" stroke-width="4" stroke-linecap="round"></path>
</symbol>
<symbol id="af-j" viewBox="0 0 120 120">
<path d="M40,84 Q28,76 24,64" fill="none" stroke="#2B2340" stroke-width="9" stroke-linecap="round"></path>
<path d="M80,84 Q92,76 96,64" fill="none" stroke="#2B2340" stroke-width="9" stroke-linecap="round"></path>
<path d="M40,57 Q46,49 52,57" fill="none" stroke="#2B2340" stroke-width="4" stroke-linecap="round"></path>
<path d="M68,57 Q74,49 80,57" fill="none" stroke="#2B2340" stroke-width="4" stroke-linecap="round"></path>
<path d="M52,69 A8,8 0 0 0 68,69 Z" fill="#2B2340"></path>
<path d="M14,46 l2.5,5 l5,2.5 l-5,2.5 l-2.5,5 l-2.5,-5 l-5,-2.5 l5,-2.5 Z" fill="#5BBF1E"></path>
<path d="M104,40 l2.5,5 l5,2.5 l-5,2.5 l-2.5,5 l-2.5,-5 l-5,-2.5 l5,-2.5 Z" fill="#5BBF1E"></path>
<path d="M106,94 l2,4 l4,2 l-4,2 l-2,4 l-2,-4 l-4,-2 l4,-2 Z" fill="#5BBF1E"></path>
</symbol>
</defs>
<use href="#chi-tail-h"></use>
<use href="#chi-base-h"></use>
<use href="#af-j"></use>
</svg>