<svg xmlns="http://www.w3.org/2000/svg" viewBox="0 0 120 120" width="480" height="480">
<defs>
<symbol id="helm" viewBox="0 0 120 120">
<path d="M29,40 Q29,12 60,12 Q91,12 91,40 L91,44 Q60,34 29,44 Z" fill="#F3F0D4"></path>
<path d="M30,33 Q60,23 90,33 L90,35.5 Q60,25.5 30,35.5 Z" fill="#FF4B4B"></path>
<path d="M30,35.5 Q60,25.5 90,35.5 L90,40 Q60,30 30,40 Z" fill="#FFFFFF"></path>
<path d="M30,40 Q60,30 90,40 L90,42.5 Q60,32.5 30,42.5 Z" fill="#FF4B4B"></path>
<path d="M25,43 Q60,31 95,43 L95,47 Q60,35 25,47 Z" fill="#DEDABA"></path>
</symbol>
<symbol id="jacke" viewBox="0 0 120 120">
<rect x="37" y="80" width="46" height="30" rx="14" fill="#2B2340"></rect>
<rect x="37" y="89.5" width="46" height="1.8" fill="#FF4B4B"></rect>
<rect x="37" y="93" width="46" height="5" fill="#C9CFDA"></rect>
</symbol>
<symbol id="chi-tail-h" viewBox="0 0 120 120">
<path d="M78,101 Q109,103 111,85 Q112,71 107,63 Q103,55 112,46" fill="none" stroke="#8A5A3B" stroke-width="7.5" stroke-linecap="round"></path>
</symbol>
<symbol id="chi-base-h" viewBox="0 0 120 120">
<circle cx="23" cy="56" r="9.5" fill="#8A5A3B"></circle>
<circle cx="23" cy="56" r="4.8" fill="#E8B48C"></circle>
<circle cx="97" cy="56" r="9.5" fill="#8A5A3B"></circle>
<circle cx="97" cy="56" r="4.8" fill="#E8B48C"></circle>
<use href="#jacke"></use>
<circle cx="60" cy="58" r="32" fill="#8A5A3B"></circle>
<ellipse cx="60" cy="63" rx="22" ry="19" fill="#EFC9A0"></ellipse>
<circle cx="56" cy="65" r="1.6" fill="#2B2340"></circle>
<circle cx="64" cy="65" r="1.6" fill="#2B2340"></circle>
<circle cx="38" cy="70" r="4" fill="#DCA470"></circle>
<circle cx="82" cy="70" r="4" fill="#DCA470"></circle>
<use href="#helm"></use>
<circle cx="60" cy="26" r="10" fill="#FFFFFF" stroke="#FF4B4B" stroke-width="1.4"></circle>
<path d="M54.5,22 H65.5 M57.5,22 V30.5 M63,22 V30.5" fill="none" stroke="#FF4B4B" stroke-width="2.4" stroke-linecap="round"></path>
</symbol>
<symbol id="af-n" viewBox="0 0 120 120">
<ellipse cx="46" cy="56" rx="6" ry="7.5" fill="#2B2340"></ellipse>
<ellipse cx="74" cy="56" rx="6" ry="7.5" fill="#2B2340"></ellipse>
<circle cx="48.5" cy="53" r="2.4" fill="#FFFFFF"></circle>
<circle cx="43.8" cy="59.5" r="1.2" fill="#FFFFFF"></circle>
<circle cx="76.5" cy="53" r="2.4" fill="#FFFFFF"></circle>
<circle cx="71.8" cy="59.5" r="1.2" fill="#FFFFFF"></circle>
<path d="M55,71 Q60,75.5 65,71" fill="none" stroke="#2B2340" stroke-width="2.8" stroke-linecap="round"></path>
</symbol>
</defs>
<use href="#chi-tail-h"></use>
<use href="#chi-base-h"></use>
<use href="#af-n"></use>
</svg>